<svg xmlns="http://www.w3.org/2000/svg" viewBox="0 0 40 40" fill="none">
  <!-- Background -->
  <rect width="40" height="40" rx="8" fill="#1a1a2e"/>
  <!-- Flame / forge shape -->
  <path d="M20 7 C20 7 27 13 27 19.5 C27 23.2 24.8 26.4 21.5 28 C22.5 25.6 22.1 22.8 20.3 21 C20.3 21 16.5 24.5 16.5 28.5 C16.5 31.6 18.3 34.2 21 35.5 C14.2 34.2 9 28.5 9 21.5 C9 14 15 9 20 7Z" fill="#e36d2f"/>
  <!-- Inner bright flame -->
  <path d="M20 19.5 C20 19.5 23.5 22.8 23.5 26 C23.5 28.5 22.1 30.8 20 32 C17.9 30.8 16.5 28.5 16.5 26 C16.5 22.8 20 19.5 20 19.5Z" fill="#ff9f5a"/>
</svg>
