<svg xmlns="http://www.w3.org/2000/svg" viewBox="0 0 40 40" fill="none">
  <!-- Orange background — visible on dark navbar AND light pages -->
  <rect width="40" height="40" rx="8" fill="#e36d2f"/>
  <!-- Outer white flame -->
  <path d="M20 6 C20 6 28 12.5 28 20 C28 24 25.5 27.5 22 29.2 C23 27 22.6 24 20.8 22 C20.8 22 17 25.5 17 29.5 C17 32.8 19 35.5 22 37 C14.5 35.5 9 28.5 9 21 C9 13.5 15.5 8 20 6Z" fill="rgba(255,255,255,0.95)"/>
  <!-- Inner warm highlight -->
  <path d="M20 20 C20 20 23.5 23.5 23.5 26.5 C23.5 29 22 31.2 20 32.5 C18 31.2 16.5 29 16.5 26.5 C16.5 23.5 20 20 20 20Z" fill="rgba(255,200,120,0.85)"/>
</svg>
